<svg xmlns:dc="http://purl.org/dc/elements/1.1/" xmlns:cc="http://creativecommons.org/ns#" xmlns:rdf="http://www.w3.org/1999/02/22-rdf-syntax-ns#" xmlns:svg="http://www.w3.org/2000/svg" xmlns="http://www.w3.org/2000/svg" xmlns:sodipodi="http://sodipodi.sourceforge.net/DTD/sodipodi-0.dtd" xmlns:inkscape="http://www.inkscape.org/namespaces/inkscape" width="512" height="512" viewBox="0 0 135.46667 135.46667" id="svg55" inkscape:version="1.0.1 (3bc2e813f5, 2020-09-07)" sodipodi:docname="SmileWhite.svg" inkscape:export-filename="/home/xi72yow/Rastergrafik.png" inkscape:export-xdpi="247.71046" inkscape:export-ydpi="247.71046"><defs id="defs49" /><sodipodi:namedview id="base" pagecolor="#ffffff" bordercolor="#666666" borderopacity="1" inkscape:pageopacity="0" inkscape:pageshadow="2" inkscape:zoom=".7" inkscape:cx="357.48016" inkscape:cy="315.87833" inkscape:document-units="mm" inkscape:current-layer="layer1" inkscape:document-rotation="0" showgrid="false" inkscape:window-width="1920" inkscape:window-height="995" inkscape:window-x="1920" inkscape:window-y="0" inkscape:window-maximized="1" units="px" width="512" /><g inkscape:label="Ebene 1" inkscape:groupmode="layer" id="layer1"><path style="fill:#fff;stroke:#000;stroke-width:.264583px;stroke-linecap:butt;stroke-linejoin:miter;stroke-opacity:1" d="m9.3329267 61.927229 1.3703703-1.02481-3.4596053-.6584.960213 1.40076z" id="path171" inkscape:export-filename="/home/xi72yow/path171.png" inkscape:export-xdpi="247" inkscape:export-ydpi="247" /><path style="fill:#fff;stroke:#000;stroke-width:.264583px;stroke-linecap:butt;stroke-linejoin:miter;stroke-opacity:1" d="m4.1594177 63.640839 2.060943-2.3055 1.242938.40931.850477 1.3619z" id="path173" inkscape:export-filename="/home/xi72yow/path171.png" inkscape:export-xdpi="247" inkscape:export-ydpi="247" /><path style="fill:#fff;stroke:#000;stroke-width:.264583px;stroke-linecap:butt;stroke-linejoin:miter;stroke-opacity:1" d="m8.7909707 59.358139 1.9442273-.12042 1.020106 1.42631-3.0529643-1.26089z" id="path175" inkscape:export-filename="/home/xi72yow/path171.png" inkscape:export-xdpi="247" inkscape:export-ydpi="247" /><path style="fill:#fff;stroke:#000;stroke-width:.264583px;stroke-linecap:butt;stroke-linejoin:miter;stroke-opacity:1" d="m3.4647837 65.309519 3.965929-1.6164.04539 1.50101-.939197 1.4638z" id="path177" inkscape:export-filename="/home/xi72yow/path171.png" inkscape:export-xdpi="247" inkscape:export-ydpi="247" /><path style="fill:#fff;stroke:#000;stroke-width:.264583px;stroke-linecap:butt;stroke-linejoin:miter;stroke-opacity:1" d="m2.9162707 67.195839-.137671 3.62994 2.230686-2.76888 1.022123-.42465-2.470232-1.48527z" id="path179" inkscape:export-filename="/home/xi72yow/path171.png" inkscape:export-xdpi="247" inkscape:export-ydpi="247" /><path style="fill:#fff;stroke:#000;stroke-width:.264583px;stroke-linecap:butt;stroke-linejoin:miter;stroke-opacity:1" d="m3.6628317 74.299099 1.165506-4.33612.927782-1.43034 1.203005 4.17619z" id="path181" inkscape:export-filename="/home/xi72yow/path171.png" inkscape:export-xdpi="247" inkscape:export-ydpi="247" /><path style="fill:#fff;stroke:#000;stroke-width:.264583px;stroke-linecap:butt;stroke-linejoin:miter;stroke-opacity:1" d="m7.4582827 74.357599-2.932856.74576-.473977 2.12047 2.411536 3.07905z" id="path183" inkscape:export-filename="/home/xi72yow/path171.png" inkscape:export-xdpi="247" inkscape:export-ydpi="247" /><path style="fill:#fff;stroke:#000;stroke-width:.264583px;stroke-linecap:butt;stroke-linejoin:miter;stroke-opacity:1" d="m8.8004827 74.543369 1.8349133 1.67262 2.441091.80641-4.7787103 5.10067-.43338-6.16822z" id="path185" sodipodi:nodetypes="cccccc" inkscape:export-filename="/home/xi72yow/path171.png" inkscape:export-xdpi="247" inkscape:export-ydpi="247" /><path style="fill:#fff;stroke:#000;stroke-width:.264583px;stroke-linecap:butt;stroke-linejoin:miter;stroke-opacity:1" d="m13.791212 78.575639-.230076 10.65031-4.0726023-4.51974.412451-2.72967z" id="path187" sodipodi:nodetypes="ccccc" inkscape:export-filename="/home/xi72yow/path171.png" inkscape:export-xdpi="247" inkscape:export-ydpi="247" /><path style="fill:#fff;stroke:#000;stroke-width:.264583px;stroke-linecap:butt;stroke-linejoin:miter;stroke-opacity:1" d="m16.295929 78.321179 5.241201 1.63994 1.281271.7401-3.979376 4.74978-2.224472 6.40372-1.208332-8.96648.02088-3.23944z" id="path189" sodipodi:nodetypes="cccccccc" inkscape:export-filename="/home/xi72yow/path171.png" inkscape:export-xdpi="247" inkscape:export-ydpi="247" /><path style="fill:#fff;stroke:#000;stroke-width:.264583px;stroke-linecap:butt;stroke-linejoin:miter;stroke-opacity:1" d="m23.914866 80.749059 1.416433 18.51067-4.571751-2.46901-2.997435-3.05714 2.171612-3.29832 2.372208-4.60245z" id="path191" sodipodi:nodetypes="ccccccc" inkscape:export-filename="/home/xi72yow/path171.png" inkscape:export-xdpi="247" inkscape:export-ydpi="247" /><path style="fill:#fff;stroke:#000;stroke-width:.264583px;stroke-linecap:butt;stroke-linejoin:miter;stroke-opacity:1" d="m27.775414 80.551099 6.880077.78829 1.28161 2.92476-5.88478 14.89118-3.645475-11.26619.04111-5.91414z" id="path193" inkscape:export-filename="/home/xi72yow/path171.png" inkscape:export-xdpi="247" inkscape:export-ydpi="247" /><path style="fill:#fff;stroke:#000;stroke-width:.264583px;stroke-linecap:butt;stroke-linejoin:miter;stroke-opacity:1" d="m38.148923 85.758809 1.445001 21.100831-5.884688-2.08316-3.945662-2.69771z" id="path195" sodipodi:nodetypes="ccccc" inkscape:export-filename="/home/xi72yow/path171.png" inkscape:export-xdpi="247" inkscape:export-ydpi="247" /><path style="fill:#fff;stroke:#000;stroke-width:.264583px;stroke-linecap:butt;stroke-linejoin:miter;stroke-opacity:1" d="m42.132397 84.800419 5.858832-.41871.946248.64709-6.399617 19.892271-2.164966-9.941621-.221563-8.9638z" id="path197" inkscape:export-filename="/home/xi72yow/path171.png" inkscape:export-xdpi="247" inkscape:export-ydpi="247" /><path style="fill:#fff;stroke:#000;stroke-width:.264583px;stroke-linecap:butt;stroke-linejoin:miter;stroke-opacity:1" d="m52.687642 87.620319 1.088885 9.37031 2.629164 14.026281-6.08716-1.09419-5.242517-2.01722-.140542-4.22254 2.774466-8.927311z" id="path199" sodipodi:nodetypes="cccccccc" inkscape:export-filename="/home/xi72yow/path171.png" inkscape:export-xdpi="247" inkscape:export-ydpi="247" /><path style="fill:#fff;stroke:#000;stroke-width:.264583px;stroke-linecap:butt;stroke-linejoin:miter;stroke-opacity:1" d="m60.2282 84.056269 5.905603 4.20872-6.153118 19.526311-3.302071-9.310131-1.242224-6.36715.41742-4.31352 1.847188-2.73756z" id="path201" inkscape:export-filename="/home/xi72yow/path171.png" inkscape:export-xdpi="247" inkscape:export-ydpi="247" /><path style="fill:#fff;stroke:#000;stroke-width:.264583px;stroke-linecap:butt;stroke-linejoin:miter;stroke-opacity:1" d="m67.853452 91.724409 4.510749 19.376241-1.18569 1.90647-5.369333.14448-4.488537-1.11917 1.798376-4.59998z" id="path203" sodipodi:nodetypes="ccccccc" inkscape:export-filename="/home/xi72yow/path171.png" inkscape:export-xdpi="247" inkscape:export-ydpi="247" /><path style="fill:#fff;stroke:#000;stroke-width:.264583px;stroke-linecap:butt;stroke-linejoin:miter;stroke-opacity:1" d="m73.617231 85.396799 3.37721-.95863 1.98674 1.7669.20539 7.36228-2.1456 10.197881-2.63697 5.55267-.78948-7.37198-3.47775-14.375421z" id="path205" inkscape:export-filename="/home/xi72yow/path171.png" inkscape:export-xdpi="247" inkscape:export-ydpi="247" /><path style="fill:#fff;stroke:#000;stroke-width:.264583px;stroke-linecap:butt;stroke-linejoin:miter;stroke-opacity:1" d="m82.419691 91.705549 3.17083 6.63636 1.45412 6.481241 2.1963 5.2565-3.40036 1.10309-6.32028.97716-1.44531-2.1676 1.68123-2.52982z" id="path207" sodipodi:nodetypes="ccccccccc" inkscape:export-filename="/home/xi72yow/path171.png" inkscape:export-xdpi="247" inkscape:export-ydpi="247" /><path style="fill:#fff;stroke:#000;stroke-width:.264583px;stroke-linecap:butt;stroke-linejoin:miter;stroke-opacity:1" d="m85.974801 86.019409 5.20993-2.51319 4.91906 1.07065 1.87104 3.99582-.25408 4.65115-2.1758 4.97847-2.53203 4.506671-2.71524 3.82478.0115-5.71884.0714-3.998531-5.17434-7.20976-.21761-2.25376z" id="path209" sodipodi:nodetypes="ccccccccccccc" inkscape:export-filename="/home/xi72yow/path171.png" inkscape:export-xdpi="247" inkscape:export-ydpi="247" /><path style="fill:#fff;stroke:#000;stroke-width:.264583px;stroke-linecap:butt;stroke-linejoin:miter;stroke-opacity:1" d="m100.92783 84.625179 3.52253 4.59833 4.42993 9.38933-.65137 2.226431-3.57659 4.0992-9.111779 2.89752 1.75088-2.87824 2.1154-9.797321z" id="path211" sodipodi:nodetypes="ccccccccc" inkscape:export-filename="/home/xi72yow/path171.png" inkscape:export-xdpi="247" inkscape:export-ydpi="247" /><path style="fill:#fff;stroke:#000;stroke-width:.264583px;stroke-linecap:butt;stroke-linejoin:miter;stroke-opacity:1" d="m105.95113 81.490119 3.48655-2.02622 3.22794.86772 1.62688 4.3013-.98353 5.84502-2.1878 5.79261-2.11519-4.92604-2.29733-3.12588-2.26707-4.14839z" id="path213" sodipodi:nodetypes="cccccccccc" inkscape:export-filename="/home/xi72yow/path171.png" inkscape:export-xdpi="247" inkscape:export-ydpi="247" /><path style="fill:#fff;stroke:#000;stroke-width:.264583px;stroke-linecap:butt;stroke-linejoin:miter;stroke-opacity:1" d="m115.55498 79.957479 4.29799 4.12971 1.5011 4.40672-.47674 2.08929-3.21609 2.5243-2.93145 1.4648.88519-5.03966 1.01409-4.6003z" id="path215" sodipodi:nodetypes="ccccccccc" inkscape:export-filename="/home/xi72yow/path171.png" inkscape:export-xdpi="247" inkscape:export-ydpi="247" /><path style="fill:#fff;stroke:#000;stroke-width:.264583px;stroke-linecap:butt;stroke-linejoin:miter;stroke-opacity:1" d="m118.30316 75.888939 2.11553-1.09096 1.74269.562 1.41283 3.21633 1.17099 3.55036 1.22036 2.76944-5.73861-3.06651-.88175-1.73565-1.49135-2.11016z" id="path217" sodipodi:nodetypes="cccccccccc" inkscape:export-filename="/home/xi72yow/path171.png" inkscape:export-xdpi="247" inkscape:export-ydpi="247" /><path style="fill:#fff;stroke:#000;stroke-width:.264583px;stroke-linecap:butt;stroke-linejoin:miter;stroke-opacity:1" d="m123.39001 73.377069 2.06795 2.80953.22118 2.104.54256 2.76834 2.13077 1.87182 1.90923-1.80474.79018-2.28638-3.11827-3.6239z" id="path219" sodipodi:nodetypes="ccccccccc" inkscape:export-filename="/home/xi72yow/path171.png" inkscape:export-xdpi="247" inkscape:export-ydpi="247" /><path style="fill:#fff;stroke:#000;stroke-width:.264583px;stroke-linecap:butt;stroke-linejoin:miter;stroke-opacity:1" d="m126.44144 67.886809-1.42252 3.31094 3.38925 2.46841 1.66144.30385 1.13424 1.7606.0518-1.97182-2.5655-4.8655z" id="path221" inkscape:export-filename="/home/xi72yow/path171.png" inkscape:export-xdpi="247" inkscape:export-ydpi="247" /><path style="fill:#fff;stroke:#000;stroke-width:.264583px;stroke-linecap:butt;stroke-linejoin:miter;stroke-opacity:1" d="m126.61109 65.910959 2.71463-1.63711 1.43938-.20238 1.14878 4.4241-1.3273.75862-2.76334-2.47499z" id="path223" sodipodi:nodetypes="ccccccc" inkscape:export-filename="/home/xi72yow/path171.png" inkscape:export-xdpi="247" inkscape:export-ydpi="247" /><path style="fill:#fff;stroke:#000;stroke-width:.264583px;stroke-linecap:butt;stroke-linejoin:miter;stroke-opacity:1" d="m125.99013 61.150569.24932 2.54961.6057.68609 2.72656-2.03244-2.21365-1.54111z" id="path225" inkscape:export-filename="/home/xi72yow/path171.png" inkscape:export-xdpi="247" inkscape:export-ydpi="247" /><path style="fill:#fff;stroke:#000;stroke-width:.264583px;stroke-linecap:butt;stroke-linejoin:miter;stroke-opacity:1" d="m124.21038 59.292049 1.79366-.0938.99984.60988-1.50593.46912-.84638.60076z" id="path227" inkscape:export-filename="/home/xi72yow/path171.png" inkscape:export-xdpi="247" inkscape:export-ydpi="247" /><path style="fill:#fff;stroke:#000;stroke-width:.264583px;stroke-linecap:butt;stroke-linejoin:miter;stroke-opacity:1" d="m123.51264 59.487939.48463 1.32586-1.40427.70583.0334-.94903z" id="path229" inkscape:export-filename="/home/xi72yow/path171.png" inkscape:export-xdpi="247" inkscape:export-ydpi="247" /><path style="fill:#fff;stroke:#000;stroke-width:.264583px;stroke-linecap:butt;stroke-linejoin:miter;stroke-opacity:1" d="m121.65397 61.551319-1.27458 1.78173 1.55004-.6537.40224-.69616z" id="path231" inkscape:export-filename="/home/xi72yow/path171.png" inkscape:export-xdpi="247" inkscape:export-ydpi="247" /><path style="fill:#fff;stroke:#000;stroke-width:.264583px;stroke-linecap:butt;stroke-linejoin:miter;stroke-opacity:1" d="m20.861685 30.442819 3.444309 13.626463 3.069556 1.91882 4.20416 4.042177 2.504035 1.20876 6.373442-1.10244 14.758323 8.15745-7.594539-15.435583-14.598472-6.388082-2.931549.568632-2.671405-4.330618z" id="path315" inkscape:export-filename="/home/xi72yow/path171.png" inkscape:export-xdpi="247" inkscape:export-ydpi="247" /><path style="fill:#fff;stroke:#000;stroke-width:.304883px;stroke-linecap:butt;stroke-linejoin:miter;stroke-opacity:1" d="m78.959371 58.078799 13.85157-12.890241.16497-3.33676 20.015619-9.042012-2.34573 10.421922-2.89071 7.064881-19.388919 7.81589z" id="path317" inkscape:export-filename="/home/xi72yow/path171.png" inkscape:export-xdpi="247" inkscape:export-ydpi="247" /></g></svg>